<?xml version="1.0" encoding="utf-8"?>
<!-- Generator: Adobe Illustrator 26.0.2, SVG Export Plug-In . SVG Version: 6.00 Build 0)  -->
<svg version="1.1" id="レイヤー_1" xmlns="http://www.w3.org/2000/svg" xmlns:xlink="http://www.w3.org/1999/xlink" x="0px"
	 y="0px" viewBox="0 0 154 154" style="enable-background:new 0 0 154 154;" xml:space="preserve">
<style type="text/css">
	.st0{fill:#FFFFFF;}
</style>
<g id="レイヤー_2_00000141441442119115505890000017804050775562447261_">
	<g id="レイヤー_1-2">
		<path class="st0" d="M25,23c-29.8,28.7-30.7,76.2-2,106s76.2,30.7,106,2l16.2,3.3l-7-14.1c8.9-12.6,13.7-27.7,13.7-43.2
			c0-41.4-33.5-75-74.9-75.1C57.7,2,39,9.5,25,23z"/>
		<path d="M33.6,140.6c-35.1-24-44.1-71.9-20.1-107s71.9-44.1,107-20.1s44.1,71.9,20.1,107l6.5,13c0.2,0.4,0.2,0.8,0.2,1.2
			c-0.2,1.1-1.2,1.8-2.3,1.6l-15.2-3.1C115.5,146.6,96.7,154,77.1,154C61.6,154,46.4,149.3,33.6,140.6z M129.6,129l12.2,2.6
			l-5.2-10.4c-0.3-0.7-0.3-1.5,0.2-2.1c20.3-28.6,17.4-67.5-6.8-92.8C102.1-2.8,55.9-3.8,26.8,24.1s-30.1,74.1-2.2,103.2
			s74.1,30.1,103.2,2.2c0.4-0.4,0.9-0.6,1.4-0.6C129.3,129,129.4,129,129.6,129z"/>
	</g>
</g>
</svg>
